<svg xmlns="http://www.w3.org/2000/svg" width="223" height="223" viewBox="0 0 223 223">
  <g id="Group_214" data-name="Group 214" transform="translate(-75.408 -64)">
    <path id="Path_308" data-name="Path 308" d="M459,197.5a112.1,112.1,0,0,1-1.473,18.171c-.08.5-.165.992-.254,1.489A111.655,111.655,0,0,1,395.4,298.218c-.153.074-.309.147-.466.221q-1.87.882-3.783,1.7c-.343.144-.683.288-1.029.429a110.586,110.586,0,0,1-21.421,6.423c-.325.064-.649.123-.974.181A111.9,111.9,0,0,1,347.583,309h-.309q-.9,0-1.8-.021c-.113,0-.227,0-.34-.006a111.847,111.847,0,0,1-20.046-2.224c-.322-.067-.643-.135-.965-.205a110.145,110.145,0,0,1-17.405-5.238c-.346-.132-.686-.27-1.029-.41q-1.911-.767-3.783-1.611l-.466-.211a111.665,111.665,0,0,1-63.714-81.913c-.089-.5-.175-.992-.254-1.489a112.757,112.757,0,0,1-.012-36.262c.11-.689.23-1.382.358-2.068a109.943,109.943,0,0,1,3.584-14.225q.23-.712.469-1.424a111.534,111.534,0,0,1,215.308,15.65c.129.686.248,1.378.358,2.068A112.147,112.147,0,0,1,459,197.5Z" transform="translate(-160.592 -22)" fill="#4f44ff" opacity="0.1"/>
    <g id="Group_46" data-name="Group 46" transform="translate(87.65 91.951)">
      <g id="Group_45" data-name="Group 45" transform="translate(0)">
        <path id="Path_142" data-name="Path 142" d="M394.916,76.854,332,115.573s0,79.858,62.918,123.417c62.918-43.559,62.918-123.417,62.918-123.417Z" transform="translate(-294.277 -74.347)" fill="#4f44ff"/>
        <path id="Path_143" data-name="Path 143" d="M599.775,76.854l-1.076.662V238.235c.357.253.714.505,1.076.755,62.918-43.559,62.918-123.417,62.918-123.417Z" transform="translate(-498.76 -74.347)" fill="#4f44ff" opacity="0.04"/>
        <path id="Path_146" data-name="Path 146" d="M326.171,108.848a.857.857,0,0,1-.478-1.036.414.414,0,0,0,.019-.1h0a.43.43,0,0,0-.772-.285h0a.411.411,0,0,0-.048.084.857.857,0,0,1-1.036.478.412.412,0,0,0-.1-.019h0a.43.43,0,0,0-.285.772h0a.411.411,0,0,0,.084.048.857.857,0,0,1,.478,1.036.41.41,0,0,0-.019.1h0a.43.43,0,0,0,.772.285h0a.414.414,0,0,0,.048-.084.857.857,0,0,1,1.036-.478.412.412,0,0,0,.1.019h0a.43.43,0,0,0,.285-.772h0A.413.413,0,0,0,326.171,108.848Z" transform="translate(-287.612 -97.66)" fill="#4d8af0" opacity="0.5"/>
        <path id="Path_147" data-name="Path 147" d="M180.171,433.848a.857.857,0,0,1-.478-1.036.413.413,0,0,0,.019-.1h0a.43.43,0,0,0-.772-.285h0a.413.413,0,0,0-.048.084.857.857,0,0,1-1.036.478.412.412,0,0,0-.1-.019h0a.43.43,0,0,0-.285.772h0a.413.413,0,0,0,.084.048.857.857,0,0,1,.478,1.036.412.412,0,0,0-.019.1h0a.43.43,0,0,0,.772.285h0a.413.413,0,0,0,.048-.084.857.857,0,0,1,1.036-.478.414.414,0,0,0,.1.019h0a.43.43,0,0,0,.285-.772h0A.412.412,0,0,0,180.171,433.848Z" transform="translate(-175.672 -346.842)" fill="#4d8af0" opacity="0.5"/>
        <ellipse id="Ellipse_36" data-name="Ellipse 36" cx="1.4" cy="1.4" rx="1.4" ry="1.4" transform="translate(173.192 57.855)" fill="#f55f44" opacity="0.5"/>
        <ellipse id="Ellipse_37" data-name="Ellipse 37" cx="1.4" cy="1.4" rx="1.4" ry="1.4" transform="translate(26.92 157.936)" fill="#f55f44" opacity="0.5"/>
        <ellipse id="Ellipse_38" data-name="Ellipse 38" cx="1.4" cy="1.4" rx="1.4" ry="1.4" transform="translate(196.987 111.745)" fill="#f55f44" opacity="0.5"/>
        <path id="Path_148" data-name="Path 148" d="M865.171,137.848a.857.857,0,0,1-.478-1.036.414.414,0,0,0,.019-.1h0a.43.43,0,0,0-.772-.285h0a.411.411,0,0,0-.047.084.857.857,0,0,1-1.036.478.412.412,0,0,0-.1-.019h0a.43.43,0,0,0-.285.772h0a.416.416,0,0,0,.084.048.857.857,0,0,1,.478,1.036.407.407,0,0,0-.019.1h0a.43.43,0,0,0,.772.285h0a.409.409,0,0,0,.048-.084.857.857,0,0,1,1.036-.478.413.413,0,0,0,.1.019h0a.43.43,0,0,0,.285-.772h0A.412.412,0,0,0,865.171,137.848Z" transform="translate(-700.869 -119.895)" fill="#4d8af0" opacity="0.5"/>
        <path id="Path_149" data-name="Path 149" d="M965.171,765.848a.857.857,0,0,1-.478-1.036.417.417,0,0,0,.019-.1h0a.43.43,0,0,0-.772-.285h0a.412.412,0,0,0-.047.084.858.858,0,0,1-1.036.478.406.406,0,0,0-.1-.019h0a.43.43,0,0,0-.285.772h0a.414.414,0,0,0,.084.047.857.857,0,0,1,.478,1.036.42.42,0,0,0-.019.1h0a.43.43,0,0,0,.772.285h0a.419.419,0,0,0,.048-.084.857.857,0,0,1,1.036-.478.413.413,0,0,0,.1.019h0a.43.43,0,0,0,.285-.772h0A.419.419,0,0,0,965.171,765.848Z" transform="translate(-777.541 -601.39)" fill="#4d8af0" opacity="0.5"/>
        <path id="Path_150" data-name="Path 150" d="M173.171,243.848a.857.857,0,0,1-.478-1.036.411.411,0,0,0,.019-.1h0a.43.43,0,0,0-.772-.285h0a.413.413,0,0,0-.048.084.857.857,0,0,1-1.036.478.412.412,0,0,0-.1-.019h0a.43.43,0,0,0-.285.772h0a.411.411,0,0,0,.084.048.857.857,0,0,1,.478,1.036.412.412,0,0,0-.019.1h0a.43.43,0,0,0,.772.285h0a.412.412,0,0,0,.048-.084.857.857,0,0,1,1.036-.478.413.413,0,0,0,.1.019h0a.43.43,0,0,0,.285-.772h0A.412.412,0,0,0,173.171,243.848Z" transform="translate(-170.305 -201.166)" fill="#4d8af0" opacity="0.5"/>
        <ellipse id="Ellipse_39" data-name="Ellipse 39" cx="1.4" cy="1.4" rx="1.4" ry="1.4" transform="translate(17.122 64.854)" fill="#47e6b1" opacity="0.5"/>
        <ellipse id="Ellipse_40" data-name="Ellipse 40" cx="1.4" cy="1.4" rx="1.4" ry="1.4" transform="translate(197.687 76.052)" fill="#47e6b1" opacity="0.5"/>
        <g id="Group_9" data-name="Group 9" transform="translate(134.466)" opacity="0.5">
          <rect id="Rectangle_58" data-name="Rectangle 58" width="0.7" height="3.966" transform="translate(1.633)" fill="#47e6b1"/>
          <rect id="Rectangle_59" data-name="Rectangle 59" width="0.7" height="3.966" transform="translate(3.966 1.633) rotate(90)" fill="#47e6b1"/>
        </g>
        <g id="Group_10" data-name="Group 10" transform="translate(137.032 155.37)" opacity="0.5">
          <rect id="Rectangle_60" data-name="Rectangle 60" width="0.7" height="3.966" transform="translate(1.633)" fill="#47e6b1"/>
          <rect id="Rectangle_61" data-name="Rectangle 61" width="0.7" height="3.966" transform="translate(3.966 1.633) rotate(90)" fill="#47e6b1"/>
        </g>
        <g id="Group_11" data-name="Group 11" transform="translate(4.525 163.768)" opacity="0.5">
          <rect id="Rectangle_62" data-name="Rectangle 62" width="0.7" height="3.966" transform="translate(1.633)" fill="#47e6b1"/>
          <rect id="Rectangle_63" data-name="Rectangle 63" width="0.7" height="3.966" transform="translate(3.966 1.633) rotate(90)" fill="#47e6b1"/>
        </g>
        <g id="Group_12" data-name="Group 12" transform="translate(163.86 92.382)" opacity="0.5">
          <rect id="Rectangle_64" data-name="Rectangle 64" width="0.7" height="3.966" transform="translate(1.633)" fill="#47e6b1"/>
          <rect id="Rectangle_65" data-name="Rectangle 65" width="0.7" height="3.966" transform="translate(3.966 1.633) rotate(90)" fill="#47e6b1"/>
        </g>
        <path id="Path_151" data-name="Path 151" d="M793.547,117.254l1.5,1.378,2.129-3.132.752.626-2.881,3.758-2.129-2.38Z" transform="translate(-607.943 -88.555)" fill="#47e6b1" opacity="0.5"/>
        <path id="Path_159" data-name="Path 159" d="M826.185,365.5c-1.493,2.721-5.249,6.3-7.164,10.292-.5-1.8-1.11-3.666-1.11-3.666s-2.34-12.52,4.582-15.756a4.633,4.633,0,0,1,3.217.9C826.7,360.6,827.162,363.716,826.185,365.5Z" transform="translate(-666.54 -288.637)" opacity="0.1"/>
      </g>
      <g id="fingerprints" transform="translate(82.208 51.177)">
        <path id="Path_434" data-name="Path 434" d="M73.135,159.165a16.13,16.13,0,0,1-6.536-12.93V130.563c0-.459.02-.923.058-1.378a.907.907,0,0,0-1.808-.154c-.043.506-.065,1.022-.065,1.532v15.672a17.845,17.845,0,0,0,7.274,14.39.907.907,0,1,0,1.077-1.46Z" transform="translate(-64.785 -112.694)" fill="#00fca8"/>
        <path id="Path_435" data-name="Path 435" d="M147.411,397.09a16,16,0,0,1-1.646-.679.907.907,0,0,0-.784,1.636,17.852,17.852,0,0,0,1.833.756.907.907,0,1,0,.6-1.713Z" transform="translate(-134.827 -348.384)" fill="#00fca8"/>
        <path id="Path_436" data-name="Path 436" d="M208.5,243.219a.907.907,0,0,0-.907.907v3.215A16.073,16.073,0,0,1,191.535,263.4a16.3,16.3,0,0,1-1.875-.108.907.907,0,0,0-.21,1.8,18.105,18.105,0,0,0,2.085.12A17.889,17.889,0,0,0,209.4,247.342v-3.215A.907.907,0,0,0,208.5,243.219Z" transform="translate(-173.666 -213.8)" fill="#00fca8"/>
        <path id="Path_437" data-name="Path 437" d="M88.56,0A17.876,17.876,0,0,0,71.548,12.388a.907.907,0,0,0,1.727.556,16.057,16.057,0,0,1,31.34,4.925V26.7a.907.907,0,0,0,1.814,0V17.869A17.889,17.889,0,0,0,88.56,0Z" transform="translate(-70.691)" fill="#00fca8"/>
        <path id="Path_438" data-name="Path 438" d="M107.495,318.064a.907.907,0,0,0-.412,1.215,14.136,14.136,0,0,0,12.671,7.892,13.979,13.979,0,0,0,5.828-1.26.907.907,0,1,0-.751-1.651,12.29,12.29,0,0,1-11.659-.815,12.376,12.376,0,0,1-4.462-4.968A.907.907,0,0,0,107.495,318.064Z" transform="translate(-101.884 -279.51)" fill="#00fca8"/>
        <path id="Path_439" data-name="Path 439" d="M278.04,110.96a.9.9,0,0,0,.6-.226,14.13,14.13,0,0,0,4.8-10.6V84.464a14,14,0,0,0-2.729-8.335.907.907,0,1,0-1.463,1.073,12.2,12.2,0,0,1,2.377,7.262v15.672a12.315,12.315,0,0,1-4.182,9.235.907.907,0,0,0,.6,1.588Z" transform="translate(-251.447 -66.595)" fill="#00fca8"/>
        <path id="Path_440" data-name="Path 440" d="M252.673,43.62a.907.907,0,1,0,1.034-1.491,14.161,14.161,0,0,0-2.177-1.239.907.907,0,0,0-.754,1.65A12.334,12.334,0,0,1,252.673,43.62Z" transform="translate(-227.813 -35.871)" fill="#00fca8"/>
        <path id="Path_441" data-name="Path 441" d="M112.268,31.2A14.127,14.127,0,0,0,95.786,45.119V60.358a.907.907,0,1,0,1.814,0V45.119a12.312,12.312,0,0,1,14.365-12.133.907.907,0,0,0,.3-1.789Z" transform="translate(-92.036 -27.25)" fill="#00fca8"/>
        <path id="Path_442" data-name="Path 442" d="M140.32,66.575a.907.907,0,0,0,1.5,1.016,8.553,8.553,0,0,1,15.648,4.779V82.529a.907.907,0,0,0,1.814,0V72.37a10.367,10.367,0,0,0-18.965-5.8Z" transform="translate(-131.047 -54.501)" fill="#00fca8"/>
        <path id="Path_443" data-name="Path 443" d="M127.693,144.222a.907.907,0,0,0,.907-.907v-2.176a.907.907,0,0,0-1.814,0v2.176A.907.907,0,0,0,127.693,144.222Z" transform="translate(-119.287 -123.27)" fill="#00fca8"/>
        <path id="Path_444" data-name="Path 444" d="M126.786,199a10.392,10.392,0,0,0,5.328,9.06.907.907,0,1,0,.885-1.584A8.576,8.576,0,0,1,128.6,199v-9.868a.907.907,0,1,0-1.814,0Z" transform="translate(-119.287 -165.454)" fill="#00fca8"/>
        <path id="Path_445" data-name="Path 445" d="M199.908,258.769v-1.643a.907.907,0,0,0-1.814,0v1.643a8.559,8.559,0,0,1-10.594,8.31.907.907,0,1,0-.432,1.762,10.374,10.374,0,0,0,12.84-10.072Z" transform="translate(-171.669 -225.228)" fill="#00fca8"/>
        <path id="Path_446" data-name="Path 446" d="M171.026,99.716A6.7,6.7,0,0,0,164.534,93a6.626,6.626,0,0,0-6.748,6.619v15.672a.907.907,0,0,0,1.814,0V99.62a4.812,4.812,0,0,1,4.9-4.8,4.879,4.879,0,0,1,4.713,4.9v8.611a.907.907,0,0,0,1.814,0Z" transform="translate(-146.537 -81.751)" fill="#00fca8"/>
        <path id="Path_447" data-name="Path 447" d="M188.786,222.9a4.745,4.745,0,1,0,9.49,0v-4.387a.907.907,0,1,0-1.814,0V222.9a2.931,2.931,0,1,1-5.862,0v-7.774a.907.907,0,1,0-1.814,0Z" transform="translate(-173.787 -188.308)" fill="#00fca8"/>
        <path id="Path_448" data-name="Path 448" d="M193.62,144.151a.907.907,0,0,0,.907-.907V126.927A2.9,2.9,0,0,0,191.8,124a2.845,2.845,0,0,0-2.122.788,2.883,2.883,0,0,0-.892,2.079v5.079a.907.907,0,0,0,1.814,0V126.87a1.058,1.058,0,0,1,1.11-1.055,1.1,1.1,0,0,1,1,1.112v16.317A.907.907,0,0,0,193.62,144.151Z" transform="translate(-173.787 -109.001)" fill="#00fca8"/>
      </g>
    </g>
  </g>
</svg>
